<?xml version="1.0" encoding="utf-8"?>
<!-- Generator: Adobe Illustrator 19.0.0, SVG Export Plug-In . SVG Version: 6.00 Build 0)  -->
<svg version="1.1" id="InteractiveSVG" xmlns="http://www.w3.org/2000/svg" xmlns:xlink="http://www.w3.org/1999/xlink" x="0px"
	 y="0px" viewBox="0 0 586.4 761" style="enable-background:new 0 0 586.4 761;" xml:space="preserve">
<style type="text/css">

@font-face {
 font-family: 'Montserrat';
 font-style: normal;
 font-weight: 700;
 src: local('Montserrat-Bold'), url(http://fonts.gstatic.com/s/montserrat/v6/IQHow_FEYlDC4Gzy_m8fcoWiMMZ7xLd792ULpGE4W_Y.woff2) format('woff2');
 unicode-range: U+0000-00FF, U+0131, U+0152-0153, U+02C6, U+02DA, U+02DC, U+2000-206F, U+2074, U+20AC, U+2212, U+2215, U+E0FF, U+EFFD, U+F000;
}

	.st0{fill:#335B7D;}
	.st1{fill:none;stroke:#F04861;stroke-width:3;stroke-miterlimit:10;}
	.st2{fill:#F04861;}
	.st3{fill:#FFFFFF;}
	.st4{font-family:'Montserrat'; font-weight:700;}
	.st5{font-size:16px;}
	.st6{fill:none;}
	.st7{font-family:'Hind';}
	.st8{font-size:13.5px;}
	.st9{fill:none;stroke:#0EBECC;stroke-width:3;stroke-miterlimit:10;}
	.st10{fill:#0EBECC;}
	.st11{fill:none;stroke:#51234D;stroke-width:3;stroke-miterlimit:10;}
	.st12{fill:#51234D;}
</style>
<g id="background_1_">
	<rect id="XMLID_4_" class="st0" width="586.4" height="761"/>
</g>
<g id="timeline">
	<g id="morning">
		<line id="morning-bar" class="st1" x1="292.9" y1="0" x2="292.9" y2="144"/>
		<polygon id="morning-arrow" class="st2" points="292.9,107.4 292.9,36.6 257.5,72 		"/>
		<g id="morning-time">
			<text id="XMLID_8_" transform="matrix(1 0 0 1 365.7031 80.0934)" class="st3 st4 st5">7:30 A.M.</text>
		</g>
		<g id="morning-badge">
			<rect id="morning-square" x="0.4" class="st2" width="227.5" height="144"/>
			<g id="morning-title">
				<text id="XMLID_73_" transform="matrix(1 0 0 1 72.3731 32.1125)" class="st3 st4 st5" font-family="Montserrat">MORNING</text>
			</g>
			<g id="morning-details">
				<path id="morning-icon" class="st3" d="M134.6,73.3l-7.2,2.4v7.5c0,0.2-0.1,0.5-0.3,0.6c-0.2,0.1-0.5,0.2-0.7,0.1l-7.2-2.3
					l-4.4,6.1c-0.1,0.2-0.4,0.3-0.6,0.3s-0.5-0.1-0.6-0.3l-4.4-6.1l-7.2,2.3c-0.2,0.1-0.5,0-0.7-0.1c-0.2-0.1-0.3-0.4-0.3-0.6v-7.5
					l-7.2-2.4c-0.2-0.1-0.4-0.2-0.5-0.5c-0.1-0.2,0-0.5,0.1-0.7l4.4-6.1l-4.4-6.1c-0.1-0.2-0.2-0.5-0.1-0.7c0.1-0.2,0.3-0.4,0.5-0.5
					l7.2-2.4v-7.5c0-0.2,0.1-0.5,0.3-0.6c0.2-0.1,0.5-0.2,0.7-0.1l7.2,2.3l4.4-6.1c0.3-0.4,1-0.4,1.3,0l4.4,6.1l7.2-2.3
					c0.2-0.1,0.5,0,0.7,0.1c0.2,0.1,0.3,0.4,0.3,0.6v7.5l7.2,2.4c0.2,0.1,0.4,0.2,0.5,0.5c0.1,0.2,0,0.5-0.1,0.7l-4.4,6.1l4.4,6.1
					c0.1,0.2,0.2,0.5,0.1,0.7C135,73,134.8,73.2,134.6,73.3z M114.1,51.8c-7.8,0-14.1,6.3-14.1,14.1s6.3,14.1,14.1,14.1
					s14.1-6.3,14.1-14.1S121.9,51.8,114.1,51.8z"/>
				<rect id="XMLID_74_" x="43.7" y="98.8" class="st6" width="140.9" height="33.9"/>
				<text id="XMLID_75_" transform="matrix(1 0 0 1 48.246 108.3608)"><tspan x="0" y="0" class="st3 st7 st8">Review your sleeping patterns </tspan><tspan x="14.9" y="18" class="st3 st7 st8">from the evening prior.</tspan></text>
			</g>
		</g>
	</g>
	<g id="mid-morning">
		<line id="mid-morning-bar" class="st9" x1="292.9" y1="154" x2="292.9" y2="298"/>
		<polygon id="mid-morning-arrow" class="st10" points="292.9,261.4 292.9,190.6 328.2,226 		"/>
		<g id="mid-morning-time">
			<text id="XMLID_12_" transform="matrix(1 0 0 1 153.8472 234.0933)" class="st3 st4 st5">10:15 A.M.</text>
		</g>
		<g id="mid-morning-badge">
			<rect id="mid-morning-square" x="358.9" y="154" class="st10" width="227.5" height="144"/>
			<g id="mid-morning-title">
				<text id="XMLID_24_" transform="matrix(1 0 0 1 410.5455 183.9039)" class="st3 st4 st5">MID-MORNING</text>
			</g>
			<g id="mid-morning-details">
				<path id="mid-morning-icon" class="st3" d="M494.6,232.6c0,2.6-1.8,4.7-4.1,4.7h-35.7c-2.3,0-4.1-2.1-4.1-4.7v-26.7h5.5v-3.1
					h38.5V232.6z M456.1,209h-2.7v23.6c0,0.9,0.6,1.6,1.4,1.6c0.8,0,1.4-0.7,1.4-1.6V209z M491.9,205.9h-33v26.7
					c0,0.5-0.1,1.1-0.2,1.6h31.9c0.8,0,1.4-0.7,1.4-1.6V205.9z M475.4,224.7h-13.7V209h13.7V224.7z M475.4,231h-13.7v-3.1h13.7V231z
					 M464.4,212.1v9.4h8.2v-9.4H464.4z M489.1,212.1h-11V209h11V212.1z M489.1,218.4h-11v-3.1h11V218.4z M489.1,224.7h-11v-3.1h11
					V224.7z M489.1,231h-11v-3.1h11V231z"/>
				<rect id="XMLID_23_" x="402.2" y="254.6" class="st6" width="140.9" height="33.9"/>
				<text id="XMLID_22_" transform="matrix(1 0 0 1 406.7464 264.1522)"><tspan x="0" y="0" class="st3 st7 st8">Check your vitals from the </tspan><tspan x="14.9" y="18" class="st3 st7 st8">morning over coffee or tea.</tspan></text>
			</g>
		</g>
	</g>
	<g id="afternoon">
		<line id="afternoon-bar" class="st11" x1="292.9" y1="308" x2="292.9" y2="452"/>
		<polygon id="afternoon-arrow" class="st12" points="292.9,415.4 292.9,344.6 257.5,380 		"/>
		<g id="afternoon-time">
			<text id="XMLID_10_" transform="matrix(1 0 0 1 362.4395 388.0935)" class="st3 st4 st5">12:00 P.M.</text>
		</g>
		<g id="afternoon-badge">
			<rect id="afternoon-square" y="308" class="st12" width="227.5" height="144"/>
			<g id="afternoon-title">
				<text id="XMLID_78_" transform="matrix(1 0 0 1 60.7346 337.2833)" class="st3 st4 st5">AFTERNOON</text>
			</g>
			<g id="afternoon-details">
				<path id="afternoon-icon" class="st3" d="M112.2,368.6c0,1.6-1.3,3-3.1,3.5v15c0,1.3-1.4,2.5-3.1,2.5h-3.1
					c-1.7,0-3.1-1.1-3.1-2.5v-15c-1.9-0.5-3.1-1.9-3.1-3.5v-12.3c0-0.7,0.7-1.2,1.6-1.2c0.9,0,1.6,0.6,1.6,1.2v8
					c0,0.7,0.7,1.2,1.6,1.2c0.9,0,1.6-0.6,1.6-1.2v-8c0-0.7,0.7-1.2,1.6-1.2c0.9,0,1.6,0.6,1.6,1.2v8c0,0.7,0.7,1.2,1.6,1.2
					c0.9,0,1.6-0.6,1.6-1.2v-8c0-0.7,0.7-1.2,1.6-1.2c0.9,0,1.6,0.6,1.6,1.2V368.6z M131,387c0,1.3-1.4,2.5-3.1,2.5h-3.1
					c-1.7,0-3.1-1.1-3.1-2.5v-9.9h-5.5c-0.4,0-0.8-0.3-0.8-0.6v-15.4c0-3.4,3.5-6.2,7.9-6.2h6.3c0.9,0,1.6,0.6,1.6,1.2V387z"/>
				<rect id="XMLID_77_" x="43.3" y="406" class="st6" width="140.9" height="33.9"/>
				<text id="XMLID_76_" transform="matrix(1 0 0 1 47.8712 415.5316)"><tspan x="0" y="0" class="st3 st7 st8">Enjoy lunch in peace while the </tspan><tspan x="14.9" y="18" class="st3 st7 st8">Pulseband monitors abnormalities.</tspan></text>
			</g>
		</g>
	</g>
	<g id="evening">
		<line id="evening-bar" class="st1" x1="292.9" y1="462" x2="292.9" y2="606"/>
		<polygon id="evening-arrow" class="st2" points="292.5,569.4 292.5,498.6 327.9,534 		"/>
		<g id="evening-time">
			<text id="XMLID_15_" transform="matrix(1 0 0 1 156.2551 542.0933)" class="st3 st4 st5">6:30 P.M.</text>
		</g>
		<g id="evening-badge">
			<rect id="evening-square" x="358.9" y="462" class="st2" width="227.5" height="144"/>
			<g id="evening-title">
				<text id="XMLID_27_" transform="matrix(1 0 0 1 434.9612 488.283)" class="st3 st4 st5">EVENING</text>
			</g>
			<g id="evening-details">
				<path id="evening-icon" class="st3" d="M473.6,549.1c-12.8,0-23.2-10.4-23.2-23.2c0-12.5,9.8-22.7,22.3-23.1
					c0.8,0,1.5,0.5,1.8,1.2c0.3,0.8,0.1,1.6-0.5,2.2c-3.4,3.1-5.3,7.4-5.3,12.1c0,9,7.4,16.4,16.4,16.4c2.4,0,4.7-0.5,6.9-1.5
					c0.8-0.3,1.6-0.2,2.2,0.4c0.6,0.6,0.7,1.4,0.4,2.2C490.9,543.8,482.6,549.1,473.6,549.1z M485.2,538.5
					c-11.2,0-20.3-9.1-20.3-20.3c0-3.8,1.1-7.6,3.1-10.8c-8,2.4-13.8,9.7-13.8,18.5c0,10.6,8.7,19.3,19.3,19.3
					c5.8,0,11.3-2.7,14.9-7C487.4,538.4,486.3,538.5,485.2,538.5z"/>
				<rect id="XMLID_26_" x="402.2" y="562" class="st6" width="140.9" height="33.9"/>
				<text id="XMLID_25_" transform="matrix(1 0 0 1 406.7464 571.5314)"><tspan x="0" y="0" class="st3 st7 st8">Rest easy knowing the Pulseband </tspan><tspan x="14.9" y="18" class="st3 st7 st8">oversees your health while resting.</tspan></text>
			</g>
		</g>
	</g>
	<g id="the-story">
		<line id="the-story-bar" class="st9" x1="292.9" y1="617" x2="292.9" y2="761"/>
		<polygon id="the-story-arrow" class="st10" points="293.2,724.4 293.2,653.6 257.9,689 		"/>
		<g id="the-story-time">
			<text id="XMLID_11_" transform="matrix(1 0 0 1 351.5992 697.093)" class="st3 st4 st5">9:15 P.M.</text>
		</g>
		<g id="the-story-badge">
			<rect id="the-story-square" x="0.4" y="617" class="st10" width="227.5" height="144"/>
			<g id="the-story-title">
				<text id="XMLID_3_" transform="matrix(1 0 0 1 61.5742 656.1958)" class="st3 st4 st5">THE STORY...</text>
			</g>
			<g id="the-story-details">
				<path id="the-story-icon" class="st3" d="M133.5,695.6c-0.1,0.2-0.3,0.3-0.6,0.3c0,0-0.1,0-0.1,0c-0.2,0-0.4-0.1-0.6-0.2
					l-18.2-15.2l-18.2,15.2c-0.2,0.1-0.4,0.2-0.6,0.2c-0.2,0-0.4-0.1-0.6-0.3l-1.6-1.9c-0.3-0.3-0.2-0.9,0.1-1.2l18.9-15.8
					c1.1-0.9,2.9-0.9,4,0l6.4,5.4v-5.1c0-0.5,0.4-0.8,0.8-0.8h5.1c0.5,0,0.8,0.4,0.8,0.8v10.7l5.8,4.8c0.3,0.3,0.4,0.8,0.1,1.2
					L133.5,695.6z M129.3,708.1c0,0.9-0.8,1.7-1.7,1.7h-10.1v-10.1h-6.7v10.1h-10.1c-0.9,0-1.7-0.8-1.7-1.7v-12.6c0-0.1,0-0.1,0-0.2
					l15.1-12.5l15.1,12.5c0,0.1,0,0.1,0,0.2V708.1z"/>
				<rect id="XMLID_2_" x="43.7" y="727.1" class="st6" width="140.9" height="15.9"/>
				<text id="XMLID_1_" transform="matrix(1 0 0 1 56.1571 736.6375)" class="st3 st7 st8">Continues with you!</text>
			</g>
		</g>
	</g>
</g>
</svg>
