<?xml version="1.0" encoding="utf-8"?>
<!-- Generator: Adobe Illustrator 19.0.0, SVG Export Plug-In . SVG Version: 6.00 Build 0)  -->
<svg version="1.1" id="Layer_1" xmlns="http://www.w3.org/2000/svg" xmlns:xlink="http://www.w3.org/1999/xlink" x="0px" y="0px"
	 viewBox="0 0 492.9 184" style="enable-background:new 0 0 492.9 184;" xml:space="preserve">
<style type="text/css">
	.st0{fill:#FFFFFF;}
</style>
<path id="XMLID_3_" class="st0" d="M142.5,153.4c3.1-4.6,5.6-9.4,7.5-14.3c1.9-4.9,3.3-9.7,4.1-14.3c0.8-4.6,1.4-8.9,1.6-13
	c0.2-4,0.4-7.5,0.4-10.5h2v76.9H83.7H29.7H5v-2h24.7V7H5V5h24.7h88.9v2h-35v169.2h6.9c4.6,0,9.3-0.3,14.1-0.9
	c4.8-0.6,9.4-1.7,14-3.3c4.5-1.6,8.8-4,12.9-6.9C135.6,162.1,139.2,158.2,142.5,153.4z"/>
<path id="XMLID_5_" class="st0" d="M356.6,7v169.2h34.7v2H276.5v-2h24.7V11.4l-59.1,166.7h-2.2c-3.3,0-7-2.8-11-8.3
	c-4-5.5-8.3-12.7-12.7-21.5c-4.5-8.8-9.1-18.8-14-29.8c-4.9-11-9.8-22.1-14.7-33c-4.9-11-9.9-21.4-14.8-31.3
	c-4.9-9.9-9.7-18.1-14.3-24.7v134.8c0,3.3,1.2,6.1,3.5,8.4c2.3,2.3,5.1,3.5,8.4,3.5h16.8v2h-59.1v-2h16.6c3.3,0,6.1-1.2,8.4-3.5
	c2.3-2.3,3.5-5.1,3.5-8.4V26.8c-1.5-1.8-2.9-3.5-4.3-4.9c-1.4-1.5-2.8-2.7-4.1-3.7c-4.1-2.8-8-5-11.5-6.6c-3.5-1.6-6.7-2.7-9.5-3.3
	c-3.1-0.7-6-1.1-8.7-1.2V5h48c4.5,0.2,9,0.7,13.6,1.7c4,0.8,8.3,2.3,13.1,4.3c4.8,2.1,9.5,4.9,14.1,8.5c4.6,4.1,8.9,9.2,12.9,15.3
	c4,6.1,7.7,12.6,11.1,19.5c3.5,6.9,6.6,13.9,9.5,21c2.9,7.1,5.5,13.7,7.9,19.9c2.4,6.2,4.6,11.6,6.6,16.3c2,4.7,3.7,8,5.2,9.8
	L301.4,5h79.9v2H356.6z"/>
<path id="XMLID_7_" class="st0" d="M463.2,127.3c-1,9.7-3.8,18.4-8.4,26c-2,3.3-4.5,6.5-7.5,9.5c-3.1,3.1-6.7,5.8-11,8.2
	c-4.3,2.4-9.4,4.3-15.3,5.8c-5.9,1.5-12.7,2.2-20.3,2.2c-4.9,0-9.4-0.4-13.4-1.1c-4-0.7-7,0.2-10-0.7c-3-0.9-8,0.2-9.9-0.7
	c-1.9-0.9-6.7,1.7-6.7,1.7h-4.4c0.8,0.5,9.5-2.1,15.6-2c2.6,0,5.8,0,9.6,0c5.1,0,8.9-4.6,12.8-7.3c3.9-2.6,6.6-5.9,8-9.6
	c1-2.6,1.8-6.3,2.3-10.9c0.6-4.6,1-9.3,1.2-14c0.2-4.7,0.4-9,0.5-13c0.1-4,0.1-6.6,0.1-7.9V7h-25V5h106.4v2h-24.7V127.3z"/>
</svg>
