<?xml version="1.0" encoding="utf-8"?>
<!-- Generator: Adobe Illustrator 19.0.0, SVG Export Plug-In . SVG Version: 6.00 Build 0)  -->
<svg version="1.1" id="InteractiveSVG" xmlns="http://www.w3.org/2000/svg" xmlns:xlink="http://www.w3.org/1999/xlink" x="0px"
	 y="0px" viewBox="-365 -60 227.5 921" style="enable-background:new -365 -60 227.5 921;" xml:space="preserve">
<style type="text/css">

@font-face {
 font-family: 'Montserrat';
 font-style: normal;
 font-weight: 700;
 src: local('Montserrat-Bold'), url(http://fonts.gstatic.com/s/montserrat/v6/IQHow_FEYlDC4Gzy_m8fcoWiMMZ7xLd792ULpGE4W_Y.woff2) format('woff2');
 unicode-range: U+0000-00FF, U+0131, U+0152-0153, U+02C6, U+02DA, U+02DC, U+2000-206F, U+2074, U+20AC, U+2212, U+2215, U+E0FF, U+EFFD, U+F000;
}

	.st0{fill:#335B7D;}
	.st1{fill:#F04861;}
	.st2{fill:#FFFFFF;}
	.st3{font-family: 'Montserrat Bold', sans-serif; font-weight: 700;}
	.st4{font-size:16px;}
	.st5{fill:none;}
	.st6{font-family: 'Hind', sans-serif;}
	.st7{font-size:13.5px;}
	.st8{fill:#0EBECC;}
	.st9{fill:#51234D;}
</style>
<g id="background_1_">
	<rect id="XMLID_4_" x="-365" y="-60" class="st0" width="227.5" height="921"/>
</g>
<g id="timeline">
	<g id="morning">
		<polygon id="morning-arrow" class="st1" points="-251.2,118.4 -215.8,83 -286.6,83"/>
		<g id="morning-badge">
			<rect id="morning-square" x="-365" y="-60" class="st1" width="227.5" height="144"/>
			<g id="morning-title">
				<text id="XMLID_73_" transform="matrix(1 0 0 1 -292.9869 -27.8875)" class="st2 st3 st4">7:30 A.M.</text>
			</g>
			<g id="morning-details">
				<path id="morning-icon" class="st2" d="M-230.8,12.3l-7.2,2.4v7.5c0,0.2-0.1,0.5-0.3,0.6c-0.2,0.1-0.5,0.2-0.7,0.1l-7.2-2.3
					l-4.4,6.1c-0.1,0.2-0.4,0.3-0.6,0.3s-0.5-0.1-0.6-0.3l-4.4-6.1l-7.2,2.3c-0.2,0.1-0.5,0-0.7-0.1s-0.3-0.4-0.3-0.6v-7.5l-7.2-2.4
					c-0.2-0.1-0.4-0.2-0.5-0.5c-0.1-0.2,0-0.5,0.1-0.7l4.4-6.1l-4.4-6.1c-0.1-0.2-0.2-0.5-0.1-0.7s0.3-0.4,0.5-0.5l7.2-2.4v-7.5
					c0-0.2,0.1-0.5,0.3-0.6c0.2-0.1,0.5-0.2,0.7-0.1l7.2,2.3l4.4-6.1c0.3-0.4,1-0.4,1.3,0l4.4,6.1l7.2-2.3c0.2-0.1,0.5,0,0.7,0.1
					s0.3,0.4,0.3,0.6v7.5l7.2,2.4c0.2,0.1,0.4,0.2,0.5,0.5c0.1,0.2,0,0.5-0.1,0.7l-4.4,6.1l4.4,6.1c0.1,0.2,0.2,0.5,0.1,0.7
					C-230.4,12-230.6,12.2-230.8,12.3z M-251.3-9.2c-7.8,0-14.1,6.3-14.1,14.1s6.3,14.1,14.1,14.1s14.1-6.3,14.1-14.1
					S-243.5-9.2-251.3-9.2z"/>
				<rect id="XMLID_74_" x="-321.7" y="38.8" class="st5" width="140.9" height="33.9"/>
				<text transform="matrix(1 0 0 1 -317.114 46.3608)" class="st2 st6 st7" font-family="'Montserrat'">Nulla consequat massa </text>
				<text transform="matrix(1 0 0 1 -302.2141 64.3608)" class="st2 st6 st7">quis efeugiat nim.</text>
			</g>
		</g>
	</g>
	<g id="mid-morning">
		<polygon id="mid-morning-arrow" class="st8" points="-286.6,277.2 -215.8,277.2 -251.2,312.6 		"/>
		<g id="mid-morning-badge">
			<rect id="mid-morning-square" x="-365" y="134.2" class="st8" width="227.5" height="144"/>
			<g id="mid-morning-title">
				<text id="XMLID_24_" transform="matrix(1 0 0 1 -290.7373 164.1539)" class="st2 st3 st4">10:15 A.M.</text>
			</g>
			<g id="mid-morning-details">
				<path id="mid-morning-icon" class="st2" d="M-229.3,210.9c0,2.6-1.8,4.7-4.1,4.7h-35.7c-2.3,0-4.1-2.1-4.1-4.7v-26.7h5.5V181
					h38.5L-229.3,210.9L-229.3,210.9z M-267.8,187.2h-2.7v23.6c0,0.9,0.6,1.6,1.4,1.6s1.4-0.7,1.4-1.6L-267.8,187.2L-267.8,187.2z
					 M-232,184.1h-33v26.7c0,0.5-0.1,1.1-0.2,1.6h31.9c0.8,0,1.4-0.7,1.4-1.6L-232,184.1L-232,184.1z M-248.5,203h-13.7v-15.7h13.7
					V203z M-248.5,209.2h-13.7v-3.1h13.7V209.2z M-259.5,190.4v9.4h8.2v-9.4H-259.5z M-234.8,190.4h-11v-3.1h11V190.4z
					 M-234.8,196.6h-11v-3.1h11V196.6z M-234.8,203h-11v-3.1h11V203z M-234.8,209.2h-11v-3.1h11V209.2z"/>
				<rect id="XMLID_23_" x="-321.7" y="234.9" class="st5" width="140.9" height="33.9"/>
				<text transform="matrix(1 0 0 1 -317.1136 239.4022)" class="st2 st6 st7">Nulla consequat massa </text>
				<text transform="matrix(1 0 0 1 -302.2136 257.4022)" class="st2 st6 st7">quis efeugiat nim.</text>
			</g>
		</g>
	</g>
	<g id="afternoon">
		<polygon id="afternoon-arrow" class="st9" points="-215.8,471.5 -286.6,471.5 -251.2,506.9 		"/>
		<g id="afternoon-badge">
			<rect id="afternoon-square" x="-365" y="328.5" class="st9" width="227.5" height="144"/>
			<g id="afternoon-title">
				<text id="XMLID_78_" transform="matrix(1 0 0 1 -292.1454 357.7833)" class="st2 st3 st4">12:00 P.M.</text>
			</g>
			<g id="afternoon-details">
				<path id="afternoon-icon" class="st2" d="M-252.8,387.1c0,1.6-1.3,3-3.1,3.5v15c0,1.3-1.4,2.5-3.1,2.5h-3.1
					c-1.7,0-3.1-1.1-3.1-2.5v-15c-1.9-0.5-3.1-1.9-3.1-3.5v-12.3c0-0.7,0.7-1.2,1.6-1.2s1.6,0.6,1.6,1.2v8c0,0.7,0.7,1.2,1.6,1.2
					s1.6-0.6,1.6-1.2v-8c0-0.7,0.7-1.2,1.6-1.2s1.6,0.6,1.6,1.2v8c0,0.7,0.7,1.2,1.6,1.2s1.6-0.6,1.6-1.2v-8c0-0.7,0.7-1.2,1.6-1.2
					s1.6,0.6,1.6,1.2v12.3H-252.8z M-234,405.5c0,1.3-1.4,2.5-3.1,2.5h-3.1c-1.7,0-3.1-1.1-3.1-2.5v-9.9h-5.5
					c-0.4,0-0.8-0.3-0.8-0.6v-15.4c0-3.4,3.5-6.2,7.9-6.2h6.3c0.9,0,1.6,0.6,1.6,1.2v30.9H-234z"/>
				<rect id="XMLID_77_" x="-321.7" y="426.5" class="st5" width="140.9" height="33.9"/>
				<text transform="matrix(1 0 0 1 -317.0889 432.0316)" class="st2 st6 st7">Nulla consequat massa </text>
				<text transform="matrix(1 0 0 1 -302.1888 450.0316)" class="st2 st6 st7">quis efeugiat nim.</text>
			</g>
		</g>
	</g>
	<g id="evening">
		<polygon id="evening-arrow" class="st1" points="-286.6,665.3 -215.8,665.4 -251.2,700.8 		"/>
		<g id="evening-badge">
			<rect id="evening-square" x="-365" y="522.8" class="st1" width="227.5" height="144"/>
			<g id="evening-title">
				<text id="XMLID_27_" transform="matrix(1 0 0 1 -288.33 549.033)" class="st2 st3 st4">6:30 P.M.</text>
			</g>
			<g id="evening-details">
				<path id="evening-icon" class="st2" d="M-250.3,607.8c-12.8,0-23.2-10.4-23.2-23.2c0-12.5,9.8-22.7,22.3-23.1
					c0.8,0,1.5,0.5,1.8,1.2c0.3,0.8,0.1,1.6-0.5,2.2c-3.4,3.1-5.3,7.4-5.3,12.1c0,9,7.4,16.4,16.4,16.4c2.4,0,4.7-0.5,6.9-1.5
					c0.8-0.3,1.6-0.2,2.2,0.4c0.6,0.6,0.7,1.4,0.4,2.2C-233,602.5-241.3,607.8-250.3,607.8z M-238.7,597.2
					c-11.2,0-20.3-9.1-20.3-20.3c0-3.8,1.1-7.6,3.1-10.8c-8,2.4-13.8,9.7-13.8,18.5c0,10.6,8.7,19.3,19.3,19.3
					c5.8,0,11.3-2.7,14.9-7C-236.5,597.2-237.6,597.2-238.7,597.2z"/>
				<rect id="XMLID_26_" x="-321.7" y="622.8" class="st5" width="140.9" height="33.9"/>
				<text transform="matrix(1 0 0 1 -317.1136 628.2814)" class="st2 st6 st7">Nulla consequat massa </text>
				<text transform="matrix(1 0 0 1 -302.2136 646.2814)" class="st2 st6 st7">quis efeugiat nim.</text>
			</g>
		</g>
	</g>
	<g id="the-story">
		<g id="the-story-badge">
			<rect id="the-story-square" x="-365" y="717" class="st8" width="227.5" height="144"/>
			<g id="the-story-title">
				<text id="XMLID_3_" transform="matrix(1 0 0 1 -303.7858 756.1958)" class="st2 st3 st4">THE STORY...</text>
			</g>
			<g id="the-story-details">
				<path id="the-story-icon" class="st2" d="M-231.9,795.6c-0.1,0.2-0.3,0.3-0.6,0.3h-0.1c-0.2,0-0.4-0.1-0.6-0.2l-18.2-15.2
					l-18.2,15.2c-0.2,0.1-0.4,0.2-0.6,0.2s-0.4-0.1-0.6-0.3l-1.6-1.9c-0.3-0.3-0.2-0.9,0.1-1.2l18.9-15.8c1.1-0.9,2.9-0.9,4,0
					l6.4,5.4V777c0-0.5,0.4-0.8,0.8-0.8h5.1c0.5,0,0.8,0.4,0.8,0.8v10.7l5.8,4.8c0.3,0.3,0.4,0.8,0.1,1.2L-231.9,795.6z
					 M-236.1,808.1c0,0.9-0.8,1.7-1.7,1.7h-10.1v-10.1h-6.7v10.1h-10.1c-0.9,0-1.7-0.8-1.7-1.7v-12.6c0-0.1,0-0.1,0-0.2l15.1-12.5
					l15.1,12.5c0,0.1,0,0.1,0,0.2v12.6H-236.1z"/>
				<rect id="XMLID_2_" x="-321.7" y="827.1" class="st5" width="140.9" height="15.9"/>
				<text id="XMLID_1_" transform="matrix(1 0 0 1 -309.2029 836.6375)" class="st2 st6 st7">Continues with you!</text>
			</g>
		</g>
	</g>
</g>
</svg>
