<?xml version="1.0" encoding="utf-8"?>
<!-- Generator: Adobe Illustrator 18.1.1, SVG Export Plug-In . SVG Version: 6.00 Build 0)  -->
<svg version="1.1" id="Layer_1" xmlns="http://www.w3.org/2000/svg" xmlns:xlink="http://www.w3.org/1999/xlink" x="0px" y="0px"
	 viewBox="0 0 543 322.7" enable-background="new 0 0 543 322.7" xml:space="preserve">
<path fill="#FFE6E6" d="M433.5,86c-2.3-2.3-5-3.4-8.2-3.4c-3.2,0-5.4,1.1-7.6,3.4c-2.2,2.3-2.8,5-2.8,8.1v88.4
	c0,14.2-3.6,24.3-10,30.3c-2.8,2.7-6.3,4.5-10,5.4c-3.7,0.9-8.3,1.4-14.2,1.4c-2.2,0-5.8-0.4-9.8-0.8V98.1c0-4.5-1.9-8.2-5-11.5
	c-3.2-3.3-7.3-4.7-11.8-4.7h-8.3c-3.3,0-6.4,0.9-9.1,2.9s-4.8,4.4-6.1,7.4l-56.8,121.6L217,92.1c-1.3-3-3.4-5.4-6.1-7.4
	c-2.8-2-5.8-2.9-9.1-2.9h-8.3c-4.5,0-8,1.5-11.1,4.7c-3.2,3.3-4.4,7-4.4,11.5v118.8h-48V95.1c0-3.2-1.3-5.9-3.5-8.1
	c-2.3-2.3-5-3.4-8.2-3.4c-3.2,0-5.9,1.1-8,3.4c-2.2,2.3-3.3,5-3.3,8.1v128.6c0,4.3,1.5,8.2,4.6,11.3c3.1,3.1,6.8,4.8,11.1,4.8h65.8
	c3.2,0,6.2-1.2,8.4-3.4c4.3-4.3,4.1-8.9,4.1-8.9V105.4l57.3,122.9c1.3,3.2,3.2,5.7,6,7.6c2.8,1.9,6,2.9,9.6,2.9s6.9-1,9.7-2.9
	c2.8-1.9,5.1-4.5,6.4-7.6L348,105.4v122.1c0,2.2,0.4,4.1,1.4,5.8c0.5,1,1,1.8,1.7,2.2c1.5,1.5,3.2,2.4,5.2,2.9
	c7.6,2.6,19.5,2.6,29,2.6c14.8,0,26.7-4,35.3-12c10.8-10.2,16.3-26.2,16.3-48V94.1C437,90.9,435.8,88.2,433.5,86z"/>
<rect x="12.5" y="12.5" fill="none" stroke="#FFE6E6" stroke-width="25" stroke-miterlimit="10" width="518" height="297.7"/>
</svg>
